<svg width="74" height="43" viewBox="0 0 74 43" fill="none" xmlns="http://www.w3.org/2000/svg">
<rect x="0.968003" y="1.47264" width="72.0517" height="40.6109" rx="7.20517" stroke="#DFE3E6" stroke-width="1.31003"/>
<path d="M37.0154 30.7518C34.9318 32.5081 32.229 33.5684 29.2755 33.5684C22.6855 33.5684 17.3433 28.2897 17.3433 21.7781C17.3433 15.2665 22.6855 9.98784 29.2755 9.98784C32.229 9.98784 34.9318 11.0481 37.0154 12.8044C39.0991 11.0481 41.8019 9.98784 44.7553 9.98784C51.3453 9.98784 56.6876 15.2665 56.6876 21.7781C56.6876 28.2897 51.3453 33.5684 44.7553 33.5684C41.8019 33.5684 39.0991 32.5081 37.0154 30.7518Z" fill="#ED0006"/>
<path d="M37.0156 30.7518C39.5812 28.5892 41.2079 25.3714 41.2079 21.7781C41.2079 18.1849 39.5812 14.967 37.0156 12.8045C39.0993 11.0481 41.8021 9.98784 44.7556 9.98784C51.3456 9.98784 56.6879 15.2665 56.6879 21.7781C56.6879 28.2897 51.3456 33.5684 44.7556 33.5684C41.8021 33.5684 39.0993 32.5081 37.0156 30.7518Z" fill="#F9A000"/>
<path d="M37.0156 30.7518C39.5812 28.5893 41.208 25.3714 41.208 21.7781C41.208 18.1849 39.5812 14.967 37.0156 12.8045C34.45 14.967 32.8232 18.1849 32.8232 21.7781C32.8232 25.3714 34.45 28.5893 37.0156 30.7518Z" fill="#FF5E00"/>
</svg>
